<svg width="120" height="25" viewBox="0 0 120 25" fill="none" xmlns="http://www.w3.org/2000/svg">
<path d="M21.947 9.44902C21.818 9.07102 21.477 8.80402 21.079 8.77302L15.378 8.32002L12.911 2.85902C12.75 2.50002 12.393 2.27002 12 2.27002C11.607 2.27002 11.25 2.50002 11.089 2.85802L8.62197 8.32002L2.92097 8.77302C2.52997 8.80402 2.19297 9.06102 2.05997 9.43002C1.92697 9.79902 2.02097 10.212 2.30197 10.486L6.51497 14.593L5.02497 21.045C4.93297 21.444 5.09397 21.859 5.43097 22.092C5.60297 22.21 5.80097 22.27 5.99997 22.27C6.19297 22.27 6.38697 22.214 6.55497 22.102L12 18.472L17.445 22.102C17.793 22.334 18.25 22.325 18.59 22.078C18.928 21.831 19.077 21.398 18.962 20.996L17.133 14.596L21.669 10.514C21.966 10.246 22.075 9.82802 21.947 9.44902Z" fill="#FFB700"/>
<path d="M45.947 9.44902C45.818 9.07102 45.477 8.80402 45.079 8.77302L39.378 8.32002L36.911 2.85902C36.75 2.50002 36.393 2.27002 36 2.27002C35.607 2.27002 35.25 2.50002 35.089 2.85802L32.622 8.32002L26.921 8.77302C26.53 8.80402 26.193 9.06102 26.06 9.43002C25.927 9.79902 26.021 10.212 26.302 10.486L30.515 14.593L29.025 21.045C28.933 21.444 29.094 21.859 29.431 22.092C29.603 22.21 29.801 22.27 30 22.27C30.193 22.27 30.387 22.214 30.555 22.102L36 18.472L41.445 22.102C41.793 22.334 42.25 22.325 42.59 22.078C42.928 21.831 43.077 21.398 42.962 20.996L41.133 14.596L45.669 10.514C45.966 10.246 46.075 9.82802 45.947 9.44902Z" fill="#FFB700"/>
<path d="M69.947 9.44902C69.818 9.07102 69.477 8.80402 69.079 8.77302L63.378 8.32002L60.911 2.85902C60.75 2.50002 60.393 2.27002 60 2.27002C59.607 2.27002 59.25 2.50002 59.089 2.85802L56.622 8.32002L50.921 8.77302C50.53 8.80402 50.193 9.06102 50.06 9.43002C49.927 9.79902 50.021 10.212 50.302 10.486L54.515 14.593L53.025 21.045C52.933 21.444 53.094 21.859 53.431 22.092C53.603 22.21 53.801 22.27 54 22.27C54.193 22.27 54.387 22.214 54.555 22.102L60 18.472L65.445 22.102C65.793 22.334 66.25 22.325 66.59 22.078C66.928 21.831 67.077 21.398 66.962 20.996L65.133 14.596L69.669 10.514C69.966 10.246 70.075 9.82802 69.947 9.44902Z" fill="#FFB700"/>
<path d="M93.947 9.44902C93.818 9.07102 93.477 8.80402 93.079 8.77302L87.378 8.32002L84.911 2.85902C84.75 2.50002 84.393 2.27002 84 2.27002C83.607 2.27002 83.25 2.50002 83.089 2.85802L80.622 8.32002L74.921 8.77302C74.53 8.80402 74.193 9.06102 74.06 9.43002C73.927 9.79902 74.021 10.212 74.302 10.486L78.515 14.593L77.025 21.045C76.933 21.444 77.094 21.859 77.431 22.092C77.603 22.21 77.801 22.27 78 22.27C78.193 22.27 78.387 22.214 78.555 22.102L84 18.472L89.445 22.102C89.793 22.334 90.25 22.325 90.59 22.078C90.928 21.831 91.077 21.398 90.962 20.996L89.133 14.596L93.669 10.514C93.966 10.246 94.075 9.82802 93.947 9.44902Z" fill="#FFB700"/>
<path d="M117.947 9.44902C117.818 9.07102 117.477 8.80402 117.079 8.77302L111.378 8.32002L108.911 2.85902C108.75 2.50002 108.393 2.27002 108 2.27002C107.607 2.27002 107.25 2.50002 107.089 2.85802L104.622 8.32002L98.921 8.77302C98.53 8.80402 98.193 9.06102 98.06 9.43002C97.927 9.79902 98.021 10.212 98.302 10.486L102.515 14.593L101.025 21.045C100.933 21.444 101.094 21.859 101.431 22.092C101.603 22.21 101.801 22.27 102 22.27C102.193 22.27 102.387 22.214 102.555 22.102L108 18.472L113.445 22.102C113.793 22.334 114.25 22.325 114.59 22.078C114.928 21.831 115.077 21.398 114.962 20.996L113.133 14.596L117.669 10.514C117.966 10.246 118.075 9.82802 117.947 9.44902Z" fill="#FFB700"/>
</svg>
