<svg width="151" height="150" viewBox="0 0 151 150" fill="none" xmlns="http://www.w3.org/2000/svg">
<g clip-path="url(#clip0_1_119)">
<path d="M126.253 78.7087C125.57 77.9296 124.992 77.0796 124.515 76.1821C124.28 100.304 104.538 119.857 80.3 119.857C55.9172 119.857 36.0798 100.07 36.0798 75.7488C36.0798 51.4279 55.9172 31.6409 80.3 31.6409C101.276 31.6409 118.887 46.2847 123.399 65.8604L127.403 36.1669L127.494 35.4993C116.091 22.2161 99.1654 13.7828 80.3 13.7828C65.5818 13.7828 52.045 18.918 41.3894 27.4822V28.1234V28.691V41.268V41.7673C41.3894 50.1681 37.0242 57.8378 30.117 62.2204V111.382V112.229C41.4264 127.665 59.7072 137.714 80.3 137.714C101.939 137.714 121.026 126.619 132.153 109.834V108.926V82.594C129.895 81.8615 127.85 80.5307 126.253 78.7087Z" fill="#64646A"/>
<path d="M80.3 39.1372C60.0609 39.1372 43.5947 55.5611 43.5947 75.7493C43.5947 95.9376 60.0604 112.361 80.3 112.361C100.54 112.361 117.005 95.9376 117.005 75.7493C117.005 55.5611 100.539 39.1372 80.3 39.1372Z" fill="#64646A"/>
<path d="M150.522 7.23393C150.522 4.0437 147.93 1.45764 144.731 1.45764C141.831 1.45764 139.379 3.59695 138.992 6.46386L130.531 69.2034C130.308 70.855 130.811 72.5216 131.91 73.7759C133.01 75.0302 134.599 75.7493 136.269 75.7493H139.667V143.045C139.667 146.081 142.135 148.542 145.178 148.542C148.222 148.542 150.689 146.081 150.689 143.045L150.522 7.23393Z" fill="#64646A"/>
<path d="M33.8744 8.45372C33.8744 6.38338 32.1926 4.70581 30.117 4.70581C28.0414 4.70581 26.3595 6.38338 26.3595 8.45372V29.1917H20.8486V8.45372C20.8486 6.38338 19.1668 4.70581 17.0912 4.70581C15.0156 4.70581 13.3337 6.38338 13.3337 8.45372V29.1917H7.82279V8.45372C7.82279 6.38338 6.14096 4.70581 4.06534 4.70581C1.98973 4.70581 0.307892 6.38338 0.307892 8.45372V42.2679C0.307892 49.5733 5.02575 55.7969 11.5802 58.0771V143.045C11.5802 146.081 14.0476 148.542 17.0912 148.542C20.1347 148.542 22.6021 146.081 22.6021 143.045V58.0771C29.1566 55.7969 33.8744 49.5733 33.8744 42.2679V8.45372Z" fill="#64646A"/>
</g>
<defs>
<clipPath id="clip0_1_119">
<rect width="150.382" height="150" fill="white" transform="translate(0.307892)"/>
</clipPath>
</defs>
</svg>
